<svg id="Capa_1" enable-background="new 0 0 512.619 512.619" height="512" viewBox="0 0 512.619 512.619" width="512" xmlns="http://www.w3.org/2000/svg"><g><g><circle cx="247.777" cy="254.198" fill="#c8effe" r="238.066"/><path d="m216.538 254.198c0-94.234 55.036-175.852 134.652-214.408-31.291-15.153-66.377-23.658-103.414-23.658-131.27 0-238.066 106.796-238.066 238.066s106.796 238.066 238.066 238.066c37.036 0 72.123-8.504 103.414-23.658-79.615-38.557-134.652-120.175-134.652-214.408z" fill="#99e6fc"/><circle cx="247.777" cy="254.198" fill="#eb5569" r="184.583"/><path d="m296.684 76.19c-15.583-4.286-31.982-6.576-48.908-6.576-101.779 0-184.583 82.803-184.583 184.583s82.804 184.583 184.584 184.583c16.925 0 33.331-2.291 48.914-6.577-49.134-43.641-80.152-107.275-80.152-178.005s31.011-134.366 80.145-178.008z" fill="#e53950"/><circle cx="247.777" cy="254.198" fill="#01d0fb" r="119.564"/><path d="m248.796 134.637c-.345-.003-.673-.004-1.019-.004-65.928 0-119.564 53.637-119.564 119.564s53.637 119.564 119.564 119.564c.346 0 .675-.001 1.02-.004-20.503-35.156-32.258-76.01-32.258-119.56s11.753-84.404 32.257-119.56z" fill="#01c0fa"/><circle cx="247.777" cy="254.197" fill="#fedf30" r="69.228"/><path d="m216.538 254.198c0-22.758 3.22-44.774 9.215-65.629-27.432 9.203-47.204 35.098-47.204 65.629s19.769 56.442 47.201 65.645c-5.995-20.855-9.212-42.888-9.212-65.645z" fill="#fed402"/><g><g><path d="m390.811 364.302-60.139-55.648-13.541-13.541-23.86 23.86 14.821 14.084 60.139 55.647 20.563 20.563 22.923-22.923z" fill="#e5e1e5"/></g><path d="m288.964 326.765-21.133-19.555c-3.018-2.793-5.008-6.52-5.651-10.581l-3.908-24.713c-.718-4.542 3-8.561 7.584-8.196l24.941 1.982c4.099.326 7.969 2.021 10.987 4.814l21.133 19.555c7.424 6.869 7.873 18.456 1.004 25.88l-9.078 9.811c-6.869 7.423-18.456 7.872-25.879 1.003z" fill="#62dbfb"/></g><g id="XMLID_1065_"><g><path d="m493.368 406.356c10.434 9.648 11.064 25.923 1.416 36.358l-2.695 2.905c-9.648 10.424-25.923 11.053-36.358 1.405l-76.208-70.524 12.458-13.465c13.906-15.028 37.354-15.93 52.382-2.024z" fill="#62dbfb"/><path d="m455.731 447.024c10.434 9.648 11.064 25.934 1.416 36.358l-2.695 2.905c-9.648 10.434-25.923 11.064-36.358 1.416l-49.005-45.356c-15.017-13.895-15.93-37.354-2.024-52.382l12.458-13.465z" fill="#01d0fb"/></g></g></g><g><path d="m348.968 464.329c-31.719 15.368-65.804 23.16-101.307 23.16-62.146 0-120.573-24.201-164.517-68.146-43.943-43.943-68.144-102.37-68.144-164.516s24.201-120.573 68.145-164.517c43.944-43.943 102.371-68.145 164.517-68.145s120.573 24.201 164.517 68.145 68.146 102.37 68.146 164.517c0 29.095-5.311 57.486-15.785 84.385-1.503 3.86.408 8.208 4.268 9.711 3.861 1.499 8.207-.409 9.711-4.268 11.152-28.642 16.807-58.864 16.807-89.828 0-66.153-25.762-128.346-72.539-175.123-46.779-46.778-108.972-72.538-175.125-72.538s-128.346 25.761-175.123 72.538c-46.778 46.777-72.539 108.969-72.539 175.123s25.761 128.346 72.539 175.123c46.777 46.777 108.97 72.539 175.123 72.539 37.787 0 74.072-8.297 107.848-24.66 3.728-1.807 5.285-6.292 3.479-10.021-1.807-3.726-6.291-5.284-10.021-3.479z"/><path d="m420.264 327.471c.866.324 1.756.479 2.63.479 3.037 0 5.896-1.858 7.024-4.871 8.176-21.823 12.321-44.787 12.321-68.252 0-42.414-13.407-82.724-38.772-116.571-24.523-32.725-59.438-57.36-98.313-69.367-3.956-1.22-8.156.996-9.379 4.953s.995 8.156 4.953 9.379c35.872 11.08 68.097 33.819 90.735 64.03 23.405 31.232 35.776 68.432 35.776 107.576 0 21.662-3.825 42.854-11.368 62.99-1.453 3.879.514 8.201 4.393 9.654z"/><path d="m68.083 254.827c0-99.02 80.559-179.578 179.578-179.578 6.985 0 14.103.42 21.154 1.247 4.115.473 7.84-2.46 8.323-6.575.482-4.114-2.461-7.841-6.575-8.323-7.63-.895-15.335-1.349-22.902-1.349-107.291 0-194.578 87.287-194.578 194.578s87.288 194.578 194.578 194.578c28.816 0 56.576-6.166 82.509-18.326 3.75-1.758 5.364-6.224 3.605-9.975-1.758-3.75-6.226-5.367-9.975-3.605-23.924 11.218-49.541 16.906-76.14 16.906-99.018 0-179.577-80.559-179.577-179.578z"/><path d="m359.766 301.344c3.913 1.35 8.184-.735 9.532-4.651 4.629-13.45 6.977-27.536 6.977-41.866 0-70.918-57.695-128.613-128.613-128.613-70.917 0-128.613 57.695-128.613 128.613 0 41.782 20.422 81.113 54.629 105.21 1.313.925 2.82 1.369 4.313 1.369 2.357-.001 4.677-1.108 6.138-3.182 2.386-3.387 1.574-8.065-1.812-10.451-30.224-21.29-48.268-56.037-48.268-92.946 0-62.646 50.967-113.613 113.613-113.613s113.613 50.967 113.613 113.613c0 12.665-2.072 25.109-6.16 36.985-1.348 3.916.734 8.184 4.651 9.532z"/><path d="m293.236 358.922c-14.403 6.315-29.736 9.518-45.574 9.518-12.674 0-25.128-2.076-37.017-6.171-3.915-1.352-8.185.731-9.534 4.648-1.349 3.916.732 8.185 4.649 9.533 13.463 4.638 27.561 6.989 41.901 6.989 17.924 0 35.283-3.627 51.598-10.779 3.793-1.664 5.521-6.087 3.857-9.881-1.664-3.793-6.087-5.521-9.88-3.857z"/><path d="m247.662 193.693c28.74 0 53.895 20.381 59.812 48.461.854 4.054 4.838 6.643 8.885 5.793 4.054-.854 6.647-4.832 5.793-8.885-7.37-34.98-38.697-60.369-74.489-60.369-41.98 0-76.134 34.153-76.134 76.134 0 38.382 28.699 70.857 66.757 75.54.311.039.62.058.925.058 3.733 0 6.967-2.785 7.435-6.585.506-4.111-2.417-7.854-6.528-8.359-30.551-3.76-53.589-29.835-53.589-60.653-.001-33.71 27.423-61.135 61.133-61.135z"/><path d="m502.357 403.613-52.271-48.368c-16.451-15.222-41.734-15.045-57.988-.181l-10.597-9.806c-3.041-2.813-7.785-2.63-10.599.411-2.813 3.04-2.629 7.785.411 10.599l10.478 9.696-6.33 6.84-6.33 6.841-49.932-46.204c.634-.565 1.244-1.162 1.828-1.794l9.187-9.927c.586-.633 1.132-1.289 1.643-1.963l14.564 13.476c1.443 1.335 3.27 1.995 5.092 1.995 2.018 0 4.029-.809 5.507-2.406 2.813-3.04 2.629-7.785-.411-10.599l-19.485-18.029c.038-7.054-2.764-14.102-8.337-19.259l-21.383-19.786c-4.271-3.952-9.818-6.383-15.617-6.843l-31.649-2.516-20.411-19.784c-2.974-2.883-7.722-2.809-10.605.166s-2.809 7.723.166 10.605l20.551 19.919 4.99 31.552c.91 5.746 3.761 11.087 8.032 15.039l21.384 19.786c4.85 4.487 11.084 6.926 17.654 6.926.343 0 .688-.007 1.033-.021.391-.015.781-.042 1.169-.074l54.964 50.859c-13.559 17.356-11.778 42.576 4.673 57.798l52.271 48.368c5.968 5.522 13.64 8.522 21.726 8.522.423 0 .848-.008 1.272-.024 8.55-.332 16.459-3.974 22.271-10.254l4.756-5.14c5.812-6.28 8.829-14.448 8.498-22.998-.036-.94-.12-1.87-.235-2.792.513.024 1.026.038 1.539.038 8.622 0 17.22-3.45 23.522-10.262l4.758-5.141c11.993-12.961 11.205-33.269-1.759-45.265zm-229.31-101.335c-1.811-1.675-3.02-3.938-3.404-6.374l-3.894-24.62 24.849 1.976c2.458.195 4.808 1.225 6.617 2.899l21.384 19.786c4.464 4.131 4.735 11.124.604 15.588l-9.187 9.927c-2.001 2.163-4.725 3.417-7.668 3.531-2.934.099-5.756-.925-7.919-2.927zm186.493 165.341c.177 4.547-1.428 8.89-4.519 12.229l-4.756 5.14c-3.09 3.34-7.296 5.276-11.842 5.452-4.558.183-8.89-1.429-12.229-4.519l-52.271-48.368c-11.271-10.429-11.955-28.082-1.526-39.353l8.98-9.705 72.71 67.281c3.34 3.091 5.277 7.297 5.453 11.843zm33.564-28.926-4.758 5.141c-6.379 6.893-17.177 7.312-24.071.934l-72.71-67.281 8.98-9.705c5.052-5.46 11.928-8.625 19.36-8.914 7.414-.277 14.532 2.336 19.992 7.388l52.271 48.368c6.895 6.377 7.314 17.176.936 24.069z"/></g></g></svg>