<svg id="Capa_1" enable-background="new 0 0 513.284 513.284" height="512" viewBox="0 0 513.284 513.284" width="512" xmlns="http://www.w3.org/2000/svg"><g><g><path d="m413.309 192.725h-24.226c-3.446 0-6.486-2.185-7.664-5.423-18.542-50.972-67.474-87.475-124.776-87.475s-106.234 36.503-124.776 87.475c-1.178 3.239-4.218 5.423-7.664 5.423h-23.623-26.43l46.995-85.674 68.462-46.365 76.004-11.604 72.523 17.986 62.075 46.995 38.877 78.662z" fill="#00f2a6"/><path d="m500.227 386.492-28.516-12.721h-29.789v64.567h29.789l28.516-12.721c3.38-1.508 5.558-4.863 5.558-8.565v-21.996c-.001-3.701-2.178-7.056-5.558-8.564z" fill="#00f2a6"/><path d="m41.574 373.771-28.516 12.721c-3.381 1.508-5.558 4.863-5.558 8.565v21.996c0 3.701 2.177 7.057 5.558 8.565l28.516 12.721h32.682v-64.567h-32.682z" fill="#05e39c"/><g><g id="XMLID_1063_"><g><path d="m457.362 232.546v56.79c0 2.64-2.14 4.79-4.78 4.79h-28.43c-2.64 0-4.79-2.15-4.79-4.79v-55.21c0-89.95-72.31-164.05-162.26-164.3-89.94-.25-163.18 72.84-163.18 162.72v56.79c0 2.64-2.15 4.79-4.79 4.79h-28.43c-2.64 0-4.78-2.15-4.78-4.79v-56.79c0-110.85 89.86-200.72 200.72-200.72 55.43 0 105.61 22.47 141.93 58.79 36.33 36.32 58.79 86.5 58.79 141.93z" fill="#6cf5c2"/></g></g><path d="m108.904 463.67h-58.25c-5.015 0-9.08-4.065-9.08-9.08v-97.071c0-5.015 4.065-9.08 9.08-9.08h58.251v115.231z" fill="#6cf5c2"/><path d="m91.665 436.617c-14.913 0-27.003-12.09-27.003-27.003v-61.175h-14.008c-5.015 0-9.08 4.065-9.08 9.08v97.071c0 5.015 4.065 9.08 9.08 9.08h58.251v-27.052h-17.24z" fill="#00f2a6"/><path d="m133.792 481.458h-29.113c-9.816 0-17.774-7.958-17.774-17.774v-115.259c0-9.816 7.958-17.774 17.774-17.774h29.113c3.012 0 5.454 2.442 5.454 5.454v139.899c0 3.012-2.442 5.454-5.454 5.454z" fill="#c9bfc8"/><path d="m139.246 454.335c-12.596 0-22.808-10.211-22.808-22.808v-100.876h-11.76c-9.816 0-17.774 7.958-17.774 17.774v115.259c0 9.816 7.958 17.774 17.774 17.774h29.113c3.012 0 5.454-2.442 5.454-5.454z" fill="#baafb9"/><path d="m410.38 463.67h52.251c5.014 0 9.08-4.065 9.08-9.08v-97.071c0-5.015-4.065-9.08-9.08-9.08h-52.251z" fill="#6cf5c2"/><path d="m379.492 481.458h29.113c9.816 0 17.774-7.958 17.774-17.774v-115.259c0-9.816-7.958-17.774-17.774-17.774h-29.113c-3.012 0-5.454 2.442-5.454 5.454v139.899c0 3.012 2.442 5.454 5.454 5.454z" fill="#c9bfc8"/><circle cx="256.142" cy="272.406" fill="#fee97d" r="93.429"/><path d="m238.399 272.406c0-38.128 22.855-70.918 55.599-85.442-11.569-5.132-24.384-7.987-37.855-7.987-51.599 0-93.429 41.83-93.429 93.429s41.83 93.429 93.429 93.429c13.471 0 26.286-2.856 37.855-7.987-32.744-14.524-55.599-47.313-55.599-85.442z" fill="#fedf30"/><path d="m228.954 300.813v-56.813c0-4.506 4.925-7.282 8.78-4.947l46.909 28.406c3.717 2.251 3.717 7.644 0 9.895l-46.909 28.406c-3.855 2.334-8.78-.441-8.78-4.947z" fill="#f9f7f8"/><path d="m238.399 272.406c0-10.484 1.737-20.561 4.924-29.969l-5.589-3.385c-3.855-2.334-8.78.441-8.78 4.948v56.812c0 4.506 4.925 7.281 8.78 4.947l5.589-3.385c-3.187-9.407-4.924-19.483-4.924-29.968z" fill="#efedef"/></g></g><g><path d="m503.282 379.643-24.072-10.738v-11.385c0-8.383-6.258-15.314-14.344-16.411v-51.773-56.786c0-114.814-93.409-208.224-208.224-208.224s-208.224 93.409-208.224 208.224v56.785 51.773c-8.086 1.097-14.344 8.029-14.344 16.411v11.385l-24.072 10.738c-6.076 2.711-10.002 8.761-10.002 15.415v21.996c0 6.653 3.926 12.704 10.002 15.414l24.072 10.738v11.385c0 9.143 7.438 16.58 16.58 16.58h29.883c3.198 10.293 12.811 17.788 24.142 17.788h29.113c7.143 0 12.955-5.812 12.955-12.954v-139.899c0-7.143-5.812-12.954-12.955-12.954h-29.113c-11.331 0-20.944 7.496-24.142 17.788h-17.119v-39.316h25.712c6.776 0 12.288-5.513 12.288-12.288v-25.258c0-4.143-3.358-7.5-7.5-7.5s-7.5 3.357-7.5 7.5v22.546h-23v-54.073c0-106.544 86.68-193.224 193.224-193.224s193.224 86.68 193.224 193.224v54.073h-23v-52.498c0-44.478-16.881-86.719-47.533-118.941-2.855-3.002-7.603-3.118-10.603-.266-3.001 2.855-3.12 7.603-.265 10.604 16.396 17.237 28.469 37.616 35.663 59.703h-15.046c-.267 0-.508-.191-.616-.487-20.106-55.274-73.083-92.411-131.824-92.411s-111.718 37.137-131.824 92.411c-.107.296-.349.487-.616.487h-15.43c7.478-23.385 20.513-44.815 38.448-62.661 29.331-29.184 68.17-45.237 109.418-45.237.146 0 .298.001.444.001 31.776.088 62.309 9.85 88.297 28.229 3.382 2.394 8.063 1.59 10.454-1.793 2.392-3.382 1.589-8.062-1.793-10.453-28.523-20.172-62.037-30.886-96.917-30.982-.164 0-.324-.001-.487-.001-45.237 0-87.837 17.605-119.997 49.604-32.263 32.101-50.097 74.776-50.217 120.165-.011 4.142 3.338 7.509 7.48 7.52h.021c4.133 0 7.489-3.345 7.5-7.48.029-10.851 1.179-21.528 3.374-31.91h19.404c6.546 0 12.458-4.163 14.712-10.36 17.958-49.368 65.27-82.538 117.728-82.538s99.77 33.17 117.728 82.538c2.254 6.197 8.167 10.36 14.712 10.36h19.125c2.415 11.028 3.658 22.382 3.658 33.9v55.21c0 6.775 5.512 12.288 12.288 12.288h25.712v39.316h-17.118c-3.198-10.292-12.811-17.788-24.142-17.788h-29.113c-7.143 0-12.955 5.812-12.955 12.954v139.898c0 7.143 5.812 12.954 12.955 12.954h29.113c11.331 0 20.944-7.496 24.142-17.788h29.882c9.142 0 16.58-7.438 16.58-16.58v-11.385l24.072-10.738c6.076-2.71 10.002-8.761 10.002-15.414v-21.996c.002-6.655-3.924-12.705-10-15.415zm-487.169 39.125c-.676-.302-1.113-.975-1.113-1.715v-21.996c0-.74.437-1.413 1.113-1.715l17.961-8.013v41.451zm78.291-70.343c0-5.665 4.609-10.273 10.274-10.273h27.067v135.807h-27.067c-5.666 0-10.274-4.609-10.274-10.274v-.014-115.23zm-15 107.745h-28.75c-.871 0-1.58-.709-1.58-1.58v-16.252-64.566-16.252c0-.871.708-1.58 1.58-1.58h28.75zm384.806-1.58c0 .871-.708 1.58-1.58 1.58h-28.75v-21.623c0-4.143-3.358-7.5-7.5-7.5s-7.5 3.357-7.5 7.5v29.138c0 5.665-4.609 10.273-10.274 10.273h-27.067v-135.807h27.067c5.666 0 10.274 4.608 10.274 10.273v54.16c0 4.143 3.358 7.5 7.5 7.5s7.5-3.357 7.5-7.5v-46.646h28.75c.871 0 1.58.709 1.58 1.58v16.252 64.566zm34.074-37.537c0 .74-.437 1.413-1.113 1.715l-17.961 8.013v-41.451l17.961 8.013c.676.302 1.113.975 1.113 1.715z"/><path d="m256.142 171.478c-55.652 0-100.929 45.276-100.929 100.929s45.277 100.93 100.929 100.93 100.929-45.277 100.929-100.93-45.277-100.929-100.929-100.929zm0 186.858c-47.381 0-85.929-38.548-85.929-85.93 0-47.381 38.548-85.929 85.929-85.929s85.929 38.548 85.929 85.929c0 47.382-38.548 85.93-85.929 85.93z"/><path d="m288.527 261.044-46.909-28.407c-4.095-2.478-9.23-2.559-13.402-.209-4.171 2.351-6.762 6.785-6.762 11.572v56.813c0 4.787 2.591 9.222 6.762 11.572 2.023 1.141 4.273 1.708 6.521 1.708 2.387 0 4.772-.641 6.882-1.918l46.909-28.406c4.009-2.428 6.403-6.675 6.403-11.362s-2.395-8.935-6.404-11.363zm-52.073 36.723v-50.721l41.879 25.36z"/></g></g></svg>