<?xml version="1.0" encoding="UTF-8"?>
<svg xmlns="http://www.w3.org/2000/svg" viewBox="0 0 512 512" width="512" height="512"><g id="Filled_outline" data-name="Filled outline"><path d="M316,72h0a84,84,0,0,0-84,84v72a84,84,0,0,0,84,84h0a84,84,0,0,0,84-84V156A84,84,0,0,0,316,72Zm52,156a52,52,0,0,1-104,0V156a52,52,0,0,1,104,0Z" style="fill:#99ced5"/><path d="M280,104.165V40H172.787a36.275,36.275,0,0,1-22.747-8.018h0a36.28,36.28,0,0,0-22.928-8.018l-1.319.007A36.255,36.255,0,0,0,114.5,25.832L96,32l7.451,12.419A116.123,116.123,0,0,1,120,104.165h0a116.122,116.122,0,0,1-9.389,45.743L86.657,205.8A181.258,181.258,0,0,0,72,277.207h0a181.277,181.277,0,0,0,19.137,81.067L104,384H296l12.863-25.725A181.277,181.277,0,0,0,328,277.208h0A181.258,181.258,0,0,0,313.343,205.8l-23.954-55.893A116.122,116.122,0,0,1,280,104.165Z" style="fill:#add7db"/><path d="M328,277.21a181.185,181.185,0,0,1-19.14,81.06L296,384H104L91.14,358.27A181.234,181.234,0,0,1,86.66,205.8l23.95-55.89a115.707,115.707,0,0,0,7.02-22.4A116.348,116.348,0,0,0,120,104.16V104H280v.16a116.072,116.072,0,0,0,9.39,45.75l23.95,55.89A181.116,181.116,0,0,1,328,277.21Z" style="fill:#fccc40"/><rect x="144" y="64" width="136" height="16" style="fill:#99ced5"/><path d="M464,488H336L320.578,359.487A1204.479,1204.479,0,0,1,312,216H488a1204.479,1204.479,0,0,1-8.578,143.487Z" style="fill:#add7db"/><path d="M486.69,272q-.36,7.935-.83,15.87-2.16,35.895-6.44,71.62L464,488H336L320.58,359.49q-5.235-43.605-7.27-87.49Z" style="fill:#fdd560"/><circle cx="88" cy="392" r="64" style="fill:#f88400"/><path d="M136,408H264a0,0,0,0,1,0,0v16a64,64,0,0,1-64,64h0a64,64,0,0,1-64-64V408A0,0,0,0,1,136,408Z" style="fill:#f88400"/><path d="M264,408a36.062,36.062,0,0,1-.89,8,42.529,42.529,0,0,1-11.55,20.45,59.068,59.068,0,0,1-13.3,10.03A76.459,76.459,0,0,1,208,455.62q-3.93.375-8,.38t-8-.38a76.631,76.631,0,0,1-30.18-9.09,59.457,59.457,0,0,1-13.32-10.02A42.537,42.537,0,0,1,136.89,416a36.4,36.4,0,0,1,0-16,42.6,42.6,0,0,1,11.69-20.59,59.339,59.339,0,0,1,13.36-10A76.606,76.606,0,0,1,192,360.38q3.93-.375,8-.38t8,.38a76.544,76.544,0,0,1,30.08,9.04,58.768,58.768,0,0,1,13.34,10A42.535,42.535,0,0,1,263.11,400,36.062,36.062,0,0,1,264,408Z" style="fill:#ffb431"/><path d="M316.472,192.8,296.744,146.76a107.732,107.732,0,0,1-7.406-25.728A43.967,43.967,0,0,1,360,156v40h16V156a59.961,59.961,0,0,0-88-53.04V85.324A76.046,76.046,0,0,1,392,156v38h16V156A92.08,92.08,0,0,0,288,68.335V40a8,8,0,0,0-8-8H172.79a28.385,28.385,0,0,1-17.73-6.249c-11.687-9.4-28.54-12.348-43.091-7.51l-18.5,6.17a8,8,0,0,0-4.329,11.7l7.45,12.421A108.146,108.146,0,0,1,112,104v.16a110.678,110.678,0,0,1-8.744,42.6l-23.949,55.89a189.189,189.189,0,0,0-12.2,108.706l15.738-2.885a173.181,173.181,0,0,1,11.167-99.519l23.948-55.888A126.58,126.58,0,0,0,127.741,112H272.258c.144,2.243.342,4.478.606,6.688a123.655,123.655,0,0,0,9.173,34.373L301.765,199.1ZM110.311,40.305l-2.322-3.87,9.034-3.013a28.384,28.384,0,0,1,8.829-1.452l1.428-.01a28.361,28.361,0,0,1,17.745,6.253A44.443,44.443,0,0,0,172.79,48H272V64H144V80H272V96H127.725A124.166,124.166,0,0,0,110.311,40.305Z"/><path d="M488,208H312a8,8,0,0,0-8,8c0,39.72,1.987,79.783,5.906,119.431a173.453,173.453,0,0,1-8.2,19.262L291.055,376H282.5v16H296a8,8,0,0,0,7.156-4.423l10.27-20.549,14.631,121.925A8,8,0,0,0,336,496H464a8,8,0,0,0,7.943-7.047l5.276-43.967-15.886-1.906L456.9,480H343.1L328.521,358.534c-3.119-26-5.384-52.251-6.793-78.534H478.272c-1.409,26.283-3.674,52.535-6.793,78.534l-7.974,66.446,15.886,1.907,7.973-66.447A1216.718,1216.718,0,0,0,496,216,8,8,0,0,0,488,208ZM320.975,264q-.806-20.021-.948-40H479.973q-.135,19.965-.948,40Z"/><rect x="48" y="376" width="16" height="16"/><rect x="72" y="400" width="16" height="16"/><rect x="112" y="360" width="16" height="16"/><path d="M250.055,367.659C236.591,357.561,218.814,352,200,352c-16.744,0-32.657,4.414-45.449,12.5a72,72,0,0,0-111.4-28.83l9.973,12.512a56.02,56.02,0,0,1,88.342,27.106C132.726,384.722,128,396.032,128,408v16c0,2.31.12,4.592.334,6.847A56,56,0,0,1,32,392a55.37,55.37,0,0,1,12.408-35.158L31.961,346.789a71.991,71.991,0,0,0,100.4,101.9A72,72,0,0,0,272,424V408C272,392.6,264.207,378.272,250.055,367.659ZM208,368.415a70.278,70.278,0,0,1,23.035,6.309L208,392ZM192,392l-23.035-17.276A70.278,70.278,0,0,1,192,368.415Zm-37.016-7.762L176,400H145.127A35.7,35.7,0,0,1,154.984,384.238ZM176,416l-21.016,15.762A35.7,35.7,0,0,1,145.127,416Zm16,8v23.585a70.278,70.278,0,0,1-23.035-6.309Zm16,0,23.035,17.276A70.278,70.278,0,0,1,208,447.585Zm37.016,7.762L224,416h30.873A35.7,35.7,0,0,1,245.016,431.762ZM254.873,400H224l21.016-15.762A35.7,35.7,0,0,1,254.873,400ZM200,480a56.066,56.066,0,0,1-50.64-32.12c.2.152.385.311.585.461C163.409,458.439,181.186,464,200,464s36.591-5.561,50.055-15.659c.2-.15.387-.309.585-.461A56.066,56.066,0,0,1,200,480Z"/><path d="M154.25,146.188l-15.411-4.3a140.787,140.787,0,0,1-4.681,13.906l14.876,5.892A156.972,156.972,0,0,0,154.25,146.188Z"/><path d="M108.721,215.288A158.46,158.46,0,0,0,100.963,238l15.491,4a142.427,142.427,0,0,1,6.974-20.411l20.42-47.654-14.707-6.3Z"/><path d="M339.333,304.6c.415,5.5.872,11.053,1.359,16.507l15.936-1.423c-.481-5.381-.931-10.861-1.34-16.286Z"/><path d="M351.9,419.032l15.886-1.906-7.487-62.4c-.758-6.312-1.478-12.762-2.139-19.169L342.241,337.2c.67,6.5,1.4,13.033,2.168,19.433Z"/></g></svg>
