<svg id="Capa_1" enable-background="new 0 0 514.049 514.049" height="512" viewBox="0 0 514.049 514.049" width="512" xmlns="http://www.w3.org/2000/svg"><g><path d="m109.559 226.866h291.078v91.935h-291.078z" fill="#baafb9"/><path d="m383.858 180.218h33.558c8.426 0 15.257 6.831 15.257 15.257v30.139h-64.072v-30.139c0-8.426 6.831-15.257 15.257-15.257z" fill="#aa9ea9"/><path d="m131.191 180.218h-33.558c-8.426 0-15.257 6.831-15.257 15.257v31.139h64.072v-31.139c0-8.426-6.831-15.257-15.257-15.257z" fill="#aa9ea9"/><g><path d="m505.254 415.49-38.32-172.9c-4.15-18.68-20.71-31.98-39.85-31.98h-48.4c-18.32 0-34.4 12.22-39.31 29.88l-3.67 13.16c-.95 3.42-4.07 5.79-7.62 5.79h-142.12c-3.55 0-6.67-2.37-7.62-5.79l-3.67-13.16c-4.91-17.66-20.99-29.88-39.31-29.88h-48.4c-19.14 0-35.7 13.3-39.85 31.98l-38.32 172.9c-4.71 21.24 3.78 43.22 21.53 55.79 9.55 6.76 20.41 9.94 31.11 9.94 20.33 0 40.11-11.47 49.29-31.71l22.12-48.74h81.595l1.974 2.106 7.867 5.389c4.31 2.952 9.411 4.532 14.635 4.532h36.215c5.224 0 10.325-1.58 14.635-4.532l7.867-5.389 1.898-2.106h81.674l22.12 48.74c14.02 30.89 52.71 41.37 80.4 21.77 14.49-10.26 22.81-26.8 22.81-44.09 0-3.88-.42-7.8-1.28-11.7z" fill="#d7d0d6"/><g><path d="m97.549 397.766 38.32-172.9c1.117-5.027 3.139-9.659 5.861-13.752-2.082-.328-4.208-.504-6.366-.504h-48.4c-19.14 0-35.7 13.3-39.85 31.98l-38.32 172.9c-4.71 21.24 3.78 43.22 21.53 55.79 9.55 6.76 20.41 9.94 31.11 9.94 20.33 0 40.11-11.47 49.29-31.71l1.007-2.219c-12.648-12.889-18.185-31.473-14.182-49.525z" fill="#c9bfc8"/></g><circle cx="176.573" cy="370.136" fill="#baafb9" r="54.164"/><circle cx="340.073" cy="370.136" fill="#baafb9" r="54.164"/><g fill="#aa9ea9"><path d="m170.79 368.363c0-20.501 11.416-38.345 28.213-47.543-6.83-3.109-14.436-4.848-22.43-4.848-29.914 0-54.164 24.25-54.164 54.164s24.25 54.164 54.164 54.164c9.413 0 18.273-2.406 25.985-6.629-18.729-8.524-31.768-27.388-31.768-49.308z"/><path d="m334.291 368.363c0-20.501 11.412-38.347 28.209-47.545-6.831-3.109-14.432-4.846-22.426-4.846-29.914 0-54.164 24.25-54.164 54.164s24.25 54.164 54.164 54.164c9.413 0 18.276-2.407 25.988-6.63-18.73-8.525-31.771-27.387-31.771-49.307z"/><circle cx="176.573" cy="370.136" r="21.567"/></g><path d="m170.79 368.363c0-6.947 1.312-13.586 3.695-19.688-10.915 1.054-19.479 10.274-19.479 21.461 0 11.719 9.401 21.266 21.055 21.541-3.376-7.06-5.271-14.964-5.271-23.314z" fill="#9b8e99"/><circle cx="337.476" cy="370.136" fill="#aa9ea9" r="21.567"/><path d="m334.291 368.363c0-6.976 1.322-13.643 3.724-19.767-.181-.005-.357-.027-.539-.027-11.892 0-21.567 9.675-21.567 21.567s9.675 21.567 21.567 21.567c.691 0 1.373-.04 2.047-.104-3.352-7.04-5.232-14.917-5.232-23.236z" fill="#9b8e99"/><path d="m252.886 177.306-81.88-57.629c-1.913-1.346-3.051-3.539-3.051-5.878v-49.026c0-2.434 1.232-4.703 3.274-6.029l38.142-24.761c2.731-1.773 6.312-1.489 8.729.692l34.109 30.773c2.736 2.468 6.894 2.468 9.63 0l34.109-30.773c2.417-2.181 5.998-2.465 8.729-.692l38.142 24.761c2.042 1.326 3.274 3.594 3.274 6.029v49.026c0 2.339-1.138 4.532-3.051 5.878l-81.88 57.629c-2.483 1.747-5.794 1.747-8.276 0z" fill="#eb5569"/><g><path d="m256.119 138.531c-14.711-10.354-23.463-27.218-23.463-45.206v-24.065c0-2.434 1.232-4.703 3.274-6.029l8.038-5.218-25.868-23.337c-2.417-2.181-5.998-2.465-8.729-.692l-38.142 24.761c-2.042 1.326-3.274 3.594-3.274 6.029v49.026c0 2.339 1.138 4.532 3.051 5.878l81.88 57.629c2.482 1.747 5.793 1.747 8.274 0l25.025-17.613z" fill="#e53950"/></g><circle cx="397.637" cy="259.762" fill="#6cf5c2" r="13.154"/><circle cx="397.637" cy="331.956" fill="#8b8089" r="13.154"/><circle cx="436.342" cy="295.859" fill="#fedf30" r="13.154"/><circle cx="358.932" cy="295.859" fill="#eb5569" r="13.154"/><path d="m141.526 279.933h-14.961c-1.965 0-3.559-1.593-3.559-3.559v-14.961c0-4.172-3.382-7.553-7.553-7.553h-15.63c-4.171 0-7.553 3.382-7.553 7.553v14.961c0 1.965-1.593 3.559-3.559 3.559h-14.962c-4.171 0-7.553 3.382-7.553 7.553v15.63c0 4.172 3.382 7.553 7.553 7.553h14.961c1.965 0 3.559 1.593 3.559 3.559v14.961c0 4.172 3.382 7.553 7.553 7.553h15.63c4.171 0 7.553-3.382 7.553-7.553v-14.961c0-1.965 1.593-3.559 3.559-3.559h14.961c4.171 0 7.553-3.382 7.553-7.553v-15.63c.001-4.172-3.381-7.553-7.552-7.553z" fill="#baafb9"/><path d="m123.006 276.374v-14.961c0-4.172-3.382-7.553-7.553-7.553h-15.63c-4.172 0-7.553 3.382-7.553 7.553v14.961c0 1.965-1.593 3.559-3.559 3.559h-14.962c-4.172 0-7.553 3.382-7.553 7.553v15.63c0 4.172 3.382 7.553 7.553 7.553h14.961c1.965 0 3.559 1.593 3.559 3.559v14.961c0 4.172 3.382 7.553 7.553 7.553h11.252l12.854-57.998c-.567-.63-.922-1.455-.922-2.37z" fill="#aa9ea9"/></g><g><path d="m512.579 413.871-38.327-172.9c-3.961-17.869-17.216-31.409-34.079-36.08v-9.416c0-12.548-10.208-22.757-22.757-22.757h-33.558c-12.548 0-22.757 10.208-22.757 22.757v10.981c-7.102 2.794-13.45 7.234-18.509 12.911h-171.135c-4.82-5.408-10.812-9.689-17.509-12.499v-11.393c0-12.548-10.209-22.757-22.757-22.757h-33.558c-12.548 0-22.757 10.208-22.757 22.757v9.146c-17.339 4.405-31.04 18.128-35.079 36.349l-23.165 104.502c-.896 4.044 1.655 8.049 5.699 8.945.547.121 1.092.179 1.63.179 3.44 0 6.54-2.381 7.315-5.878l23.165-104.501c3.407-15.369 16.781-26.103 32.523-26.103h48.395c14.901 0 28.099 10.027 32.093 24.383l3.662 13.16c1.849 6.644 7.957 11.284 14.852 11.284h95.685c4.142 0 7.5-3.358 7.5-7.5s-3.358-7.5-7.5-7.5h-95.685c-.186 0-.351-.125-.401-.305l-3.662-13.16c-.389-1.4-.844-2.769-1.351-4.109h152.943c-.507 1.341-.961 2.709-1.351 4.109l-3.662 13.159c-.05.18-.215.305-.401.305h-14.469c-4.142 0-7.5 3.358-7.5 7.5s3.358 7.5 7.5 7.5h14.469c6.896 0 13.003-4.64 14.852-11.284l3.662-13.16c3.994-14.356 17.191-24.383 32.093-24.383h48.395c15.742 0 29.116 10.734 32.523 26.103l38.327 172.9c4.063 18.333-3.214 37.189-18.54 48.038-11.365 8.045-25.591 10.574-39.033 6.934-13.441-3.638-24.45-12.997-30.206-25.677l-21.367-47.075c4.925-8.62 7.755-18.583 7.755-29.201 0-4.142-3.358-7.5-7.5-7.5s-7.5 3.358-7.5 7.5c0 24.298-19.769 44.067-44.067 44.067s-44.067-19.769-44.067-44.067c0-4.142-3.358-7.5-7.5-7.5s-7.5 3.358-7.5 7.5c0 11.298 3.193 21.862 8.718 30.846l-1.6 1.096c-3.075 2.106-6.67 3.22-10.396 3.22h-36.214c-3.727 0-7.322-1.113-10.396-3.22l-1.598-1.095c5.525-8.984 8.718-19.548 8.718-30.847 0-4.142-3.358-7.5-7.5-7.5s-7.5 3.358-7.5 7.5c0 24.298-19.769 44.067-44.067 44.067s-44.067-19.769-44.067-44.067c0-4.142-3.358-7.5-7.5-7.5s-7.5 3.358-7.5 7.5c0 10.618 2.83 20.581 7.755 29.201l-21.367 47.075c-5.755 12.68-16.765 22.039-30.206 25.677-13.44 3.639-27.667 1.111-39.033-6.934-15.327-10.849-22.604-29.705-18.541-48.038l8.176-36.886c.896-4.044-1.655-8.049-5.699-8.945-4.043-.896-8.048 1.655-8.945 5.699l-8.176 36.887c-5.374 24.244 4.25 49.18 24.519 63.527 10.524 7.45 22.903 11.322 35.483 11.322 5.385 0 10.807-.71 16.135-2.152 17.775-4.812 32.334-17.188 39.946-33.956l18.12-39.921c10.623 10.213 25.035 16.512 40.9 16.512 15.864 0 30.277-6.298 40.899-16.511l2.57 1.761c5.582 3.824 12.108 5.845 18.874 5.845h36.214c6.766 0 13.292-2.021 18.874-5.845l2.572-1.762c10.623 10.213 25.035 16.512 40.9 16.512s30.277-6.299 40.9-16.512l18.12 39.921c7.611 16.768 22.171 29.145 39.946 33.956 5.329 1.442 10.749 2.152 16.135 2.152 12.579 0 24.96-3.873 35.483-11.322 20.269-14.347 29.893-39.283 24.519-63.527zm-422.703-210.757v-7.639c0-4.277 3.479-7.757 7.757-7.757h33.558c4.277 0 7.757 3.479 7.757 7.757v7.639h-3.589zm288.813 0h-2.589v-7.639c0-4.277 3.48-7.757 7.757-7.757h33.558c4.277 0 7.757 3.479 7.757 7.757v7.639z"/><path d="m147.506 370.136c0 16.027 13.04 29.067 29.067 29.067s29.067-13.04 29.067-29.067-13.04-29.067-29.067-29.067-29.067 13.04-29.067 29.067zm29.067-14.067c7.756 0 14.067 6.311 14.067 14.067s-6.311 14.067-14.067 14.067-14.067-6.311-14.067-14.067 6.31-14.067 14.067-14.067z"/><path d="m308.409 370.136c0 16.027 13.04 29.067 29.067 29.067s29.067-13.04 29.067-29.067-13.04-29.067-29.067-29.067-29.067 13.04-29.067 29.067zm43.134 0c0 7.756-6.311 14.067-14.067 14.067s-14.067-6.311-14.067-14.067 6.311-14.067 14.067-14.067 14.067 6.311 14.067 14.067z"/><path d="m266.18 358.888c4.142 0 7.5-3.358 7.5-7.5s-3.358-7.5-7.5-7.5h-16.295c-4.142 0-7.5 3.358-7.5 7.5s3.358 7.5 7.5 7.5z"/><path d="m227.487 311.359c4.142 0 7.5-3.358 7.5-7.5s-3.358-7.5-7.5-7.5h-9.073c-4.142 0-7.5 3.358-7.5 7.5s3.358 7.5 7.5 7.5z"/><path d="m287.562 311.359h9.073c4.142 0 7.5-3.358 7.5-7.5s-3.358-7.5-7.5-7.5h-9.073c-4.142 0-7.5 3.358-7.5 7.5s3.358 7.5 7.5 7.5z"/><path d="m166.689 125.81 81.88 57.629c2.529 1.779 5.491 2.669 8.454 2.669 2.962 0 5.926-.89 8.454-2.669l29.414-20.702c3.387-2.384 4.2-7.063 1.816-10.45s-7.062-4.2-10.45-1.816l-29.234 20.576-81.568-57.409v-48.695l37.799-24.538 33.931 30.612c5.609 5.06 14.069 5.06 19.677 0l33.931-30.612 37.799 24.537v48.695l-25.804 18.161c-3.388 2.384-4.201 7.063-1.817 10.45 2.383 3.387 7.063 4.2 10.45 1.816l25.937-18.254c3.903-2.748 6.234-7.238 6.234-12.011v-49.026c0-4.994-2.5-9.6-6.69-12.32l-38.141-24.76c-5.571-3.618-12.906-3.036-17.837 1.413l-33.9 30.584-33.899-30.584c-4.932-4.45-12.267-5.031-17.836-1.414l-38.142 24.76c-4.189 2.72-6.69 7.325-6.69 12.32v49.026c-.002 4.775 2.329 9.265 6.232 12.012z"/><path d="m93.549 64.614c4.142 0 7.5-3.358 7.5-7.5v-6.895c0-4.142-3.358-7.5-7.5-7.5s-7.5 3.358-7.5 7.5v6.895c0 4.142 3.358 7.5 7.5 7.5z"/><path d="m114.617 86.447h6.895c4.142 0 7.5-3.358 7.5-7.5s-3.358-7.5-7.5-7.5h-6.895c-4.142 0-7.5 3.358-7.5 7.5s3.358 7.5 7.5 7.5z"/><path d="m92.783 114.41c4.142 0 7.5-3.358 7.5-7.5v-6.895c0-4.142-3.358-7.5-7.5-7.5s-7.5 3.358-7.5 7.5v6.895c0 4.142 3.358 7.5 7.5 7.5z"/><path d="m64.821 85.681h6.895c4.142 0 7.5-3.358 7.5-7.5s-3.358-7.5-7.5-7.5h-6.895c-4.142 0-7.5 3.358-7.5 7.5s3.358 7.5 7.5 7.5z"/><path d="m421.5 64.614c4.142 0 7.5-3.358 7.5-7.5v-6.895c0-4.142-3.358-7.5-7.5-7.5s-7.5 3.358-7.5 7.5v6.895c0 4.142 3.357 7.5 7.5 7.5z"/><path d="m393.538 86.447h6.895c4.142 0 7.5-3.358 7.5-7.5s-3.358-7.5-7.5-7.5h-6.895c-4.142 0-7.5 3.358-7.5 7.5s3.358 7.5 7.5 7.5z"/><path d="m422.266 92.515c-4.142 0-7.5 3.358-7.5 7.5v6.895c0 4.142 3.358 7.5 7.5 7.5s7.5-3.358 7.5-7.5v-6.895c0-4.143-3.358-7.5-7.5-7.5z"/><path d="m443.333 85.681h6.895c4.142 0 7.5-3.358 7.5-7.5s-3.358-7.5-7.5-7.5h-6.895c-4.142 0-7.5 3.358-7.5 7.5s3.358 7.5 7.5 7.5z"/><path d="m397.637 239.107c-11.389 0-20.654 9.266-20.654 20.654s9.266 20.654 20.654 20.654 20.654-9.266 20.654-20.654-9.266-20.654-20.654-20.654zm0 26.309c-3.118 0-5.654-2.537-5.654-5.654s2.537-5.654 5.654-5.654 5.654 2.537 5.654 5.654-2.537 5.654-5.654 5.654z"/><path d="m397.637 311.302c-11.389 0-20.654 9.266-20.654 20.654s9.266 20.654 20.654 20.654 20.654-9.266 20.654-20.654-9.266-20.654-20.654-20.654zm0 26.308c-3.118 0-5.654-2.537-5.654-5.654s2.537-5.654 5.654-5.654 5.654 2.537 5.654 5.654-2.537 5.654-5.654 5.654z"/><path d="m436.342 316.513c11.389 0 20.655-9.266 20.655-20.654s-9.266-20.654-20.655-20.654-20.654 9.266-20.654 20.654 9.265 20.654 20.654 20.654zm0-26.309c3.118 0 5.655 2.537 5.655 5.654s-2.537 5.654-5.655 5.654-5.654-2.537-5.654-5.654 2.536-5.654 5.654-5.654z"/><path d="m358.932 275.204c-11.389 0-20.654 9.266-20.654 20.654s9.266 20.654 20.654 20.654 20.654-9.266 20.654-20.654-9.266-20.654-20.654-20.654zm0 26.309c-3.118 0-5.654-2.537-5.654-5.654s2.537-5.654 5.654-5.654 5.654 2.537 5.654 5.654-2.537 5.654-5.654 5.654z"/><path d="m115.453 246.359h-15.63c-8.3 0-15.053 6.753-15.053 15.053v11.02h-11.02c-8.3 0-15.053 6.753-15.053 15.053v15.63c0 8.3 6.753 15.053 15.053 15.053h11.02v11.02c0 8.3 6.753 15.053 15.053 15.053h15.63c8.3 0 15.053-6.753 15.053-15.053v-11.02h11.02c8.3 0 15.053-6.753 15.053-15.053v-15.63c0-8.3-6.753-15.053-15.053-15.053h-11.02v-11.02c0-8.3-6.753-15.053-15.053-15.053zm26.073 41.073.053.053-.053 15.684h-14.961c-6.098 0-11.059 4.961-11.059 11.059l-.053 15.015-15.684-.053v-14.961c0-6.098-4.961-11.059-11.059-11.059l-15.015-.053.053-15.684h14.962c6.098 0 11.059-4.961 11.059-11.059l.053-15.015 15.684.053v14.961c0 6.098 4.961 11.059 11.059 11.059z"/></g></g></svg>